<mxfile host="app.diagrams.net" agent="Mozilla/5.0 (Macintosh; Intel Mac OS X 10_15_7) AppleWebKit/537.36 (KHTML, like Gecko) Chrome/133.0.0.0 Safari/537.36" version="26.0.14">
  <diagram id="C5RBs43oDa-KdzZeNtuy" name="Page-1">
    <mxGraphModel dx="895" dy="568" grid="1" gridSize="10" guides="1" tooltips="1" connect="1" arrows="1" fold="1" page="1" pageScale="1" pageWidth="827" pageHeight="1169" background="light-dark(#999999, #121212)" math="0" shadow="1">
      <root>
        <mxCell id="WIyWlLk6GJQsqaUBKTNV-0" />
        <mxCell id="WIyWlLk6GJQsqaUBKTNV-1" parent="WIyWlLk6GJQsqaUBKTNV-0" />
        <mxCell id="WIyWlLk6GJQsqaUBKTNV-3" value="Create account / sign in" style="rounded=1;whiteSpace=wrap;html=1;fontSize=12;glass=0;strokeWidth=1;shadow=0;labelBackgroundColor=none;" parent="WIyWlLk6GJQsqaUBKTNV-1" vertex="1">
          <mxGeometry x="340" y="170" width="150" height="40" as="geometry" />
        </mxCell>
        <mxCell id="9oCMim1u2ZMBZmOY0Dq_-4" value="Create Account" style="rounded=1;whiteSpace=wrap;html=1;" parent="WIyWlLk6GJQsqaUBKTNV-1" vertex="1">
          <mxGeometry x="140" y="290" width="120" height="40" as="geometry" />
        </mxCell>
        <mxCell id="9oCMim1u2ZMBZmOY0Dq_-6" value="Sign in" style="rounded=1;whiteSpace=wrap;html=1;" parent="WIyWlLk6GJQsqaUBKTNV-1" vertex="1">
          <mxGeometry x="355" y="290" width="120" height="40" as="geometry" />
        </mxCell>
        <mxCell id="1fTQSbW4LL2a2FJfOcho-0" value="First Time User" style="text;html=1;align=center;verticalAlign=middle;resizable=0;points=[];autosize=1;strokeColor=none;fillColor=none;" vertex="1" parent="WIyWlLk6GJQsqaUBKTNV-1">
          <mxGeometry x="40" y="295" width="100" height="30" as="geometry" />
        </mxCell>
        <mxCell id="1fTQSbW4LL2a2FJfOcho-1" value="Start" style="rounded=1;whiteSpace=wrap;html=1;" vertex="1" parent="WIyWlLk6GJQsqaUBKTNV-1">
          <mxGeometry x="340" y="40" width="150" height="40" as="geometry" />
        </mxCell>
        <mxCell id="1fTQSbW4LL2a2FJfOcho-2" value="Splash" style="rounded=1;whiteSpace=wrap;html=1;" vertex="1" parent="WIyWlLk6GJQsqaUBKTNV-1">
          <mxGeometry x="340" y="100" width="150" height="40" as="geometry" />
        </mxCell>
        <mxCell id="1fTQSbW4LL2a2FJfOcho-3" value="" style="endArrow=classic;html=1;rounded=0;exitX=0.5;exitY=1;exitDx=0;exitDy=0;entryX=0.5;entryY=0;entryDx=0;entryDy=0;" edge="1" parent="WIyWlLk6GJQsqaUBKTNV-1" source="1fTQSbW4LL2a2FJfOcho-1" target="1fTQSbW4LL2a2FJfOcho-2">
          <mxGeometry width="50" height="50" relative="1" as="geometry">
            <mxPoint x="450" y="250" as="sourcePoint" />
            <mxPoint x="500" y="200" as="targetPoint" />
          </mxGeometry>
        </mxCell>
        <mxCell id="1fTQSbW4LL2a2FJfOcho-5" value="" style="endArrow=classic;html=1;rounded=0;exitX=0.5;exitY=1;exitDx=0;exitDy=0;entryX=0.5;entryY=0;entryDx=0;entryDy=0;" edge="1" parent="WIyWlLk6GJQsqaUBKTNV-1" source="1fTQSbW4LL2a2FJfOcho-2" target="WIyWlLk6GJQsqaUBKTNV-3">
          <mxGeometry width="50" height="50" relative="1" as="geometry">
            <mxPoint x="425" y="90" as="sourcePoint" />
            <mxPoint x="425" y="110" as="targetPoint" />
          </mxGeometry>
        </mxCell>
        <mxCell id="1fTQSbW4LL2a2FJfOcho-6" value="Forgot Password" style="rounded=1;whiteSpace=wrap;html=1;" vertex="1" parent="WIyWlLk6GJQsqaUBKTNV-1">
          <mxGeometry x="570" y="290" width="120" height="40" as="geometry" />
        </mxCell>
      </root>
    </mxGraphModel>
  </diagram>
</mxfile>
